<?xml version="1.0" encoding="UTF-8" standalone="no"?>
<svg
   xmlns:dc="http://purl.org/dc/elements/1.1/"
   xmlns:cc="http://creativecommons.org/ns#"
   xmlns:rdf="http://www.w3.org/1999/02/22-rdf-syntax-ns#"
   xmlns:svg="http://www.w3.org/2000/svg"
   xmlns="http://www.w3.org/2000/svg"
   xmlns:sodipodi="http://sodipodi.sourceforge.net/DTD/sodipodi-0.dtd"
   xmlns:inkscape="http://www.inkscape.org/namespaces/inkscape"
   inkscape:version="1.0 (4035a4fb49, 2020-05-01)"
   sodipodi:docname="bookmarky.svg"
   xml:space="preserve"
   style="enable-background:new 0 0 345.578 345.578;"
   viewBox="0 0 345.578 345.578"
   y="0px"
   x="0px"
   id="Capa_1"
   version="1.1"><metadata
   id="metadata207"><rdf:RDF><cc:Work
       rdf:about=""><dc:format>image/svg+xml</dc:format><dc:type
         rdf:resource="http://purl.org/dc/dcmitype/StillImage" /></cc:Work></rdf:RDF></metadata><defs
   id="defs205" /><sodipodi:namedview
   inkscape:current-layer="g168"
   inkscape:window-maximized="0"
   inkscape:window-y="0"
   inkscape:window-x="0"
   inkscape:cy="169.81984"
   inkscape:cx="157.75716"
   inkscape:zoom="1.1642632"
   showgrid="false"
   id="namedview203"
   inkscape:window-height="766"
   inkscape:window-width="1364"
   inkscape:pageshadow="2"
   inkscape:pageopacity="0"
   guidetolerance="10"
   gridtolerance="10"
   objecttolerance="10"
   borderopacity="1"
   bordercolor="#666666"
   pagecolor="#ffffff" />
<g
   id="g170">
	<g
   id="g168">
		<path
   sodipodi:nodetypes="ccccsccccccccccsccccc"
   d="M 278.345,0.16 V 0 H 79.225 c -52.639111,26.988149 -44,42.73153 -44,83.8 0,4.418 3.582,8 8,8 h 67.4 v 225.84 c -0.162,6.985 2.068,13.816 6.32,19.36 6.028,7.745 16.469,10.539 25.56,6.84 7.977,-3.503 14.592,-9.514 18.84,-17.12 l 49.08,-78.28 49.2,78.4 c 4.248,7.606 10.863,13.617 18.84,17.12 9.091,3.699 19.532,0.905 25.56,-6.84 4.252,-5.544 6.482,-12.375 6.32,-19.36 V 32.16 c 0,-17.673 -14.327,-32 -32,-32 z M 82.905,16 c -55.27,-10.6666667 -27.635,-5.333333 0,0 z m 195.44,0 c -185.563333,-10.6666667 -92.78167,-5.333333 0,0 z"
   id="path1308"
   style="fill:#e9e4e4;fill-opacity:1" /><path
   style="fill:#000000;fill-opacity:1"
   id="path166"
   d="M278.345,0.16V0H79.225c-24.301,0-44,19.699-44,44v39.8c0,4.418,3.582,8,8,8h67.4v225.84    c-0.162,6.985,2.068,13.816,6.32,19.36c6.028,7.745,16.469,10.539,25.56,6.84c7.977-3.503,14.592-9.514,18.84-17.12l49.08-78.28    l49.2,78.4c4.248,7.606,10.863,13.617,18.84,17.12c9.091,3.699,19.532,0.905,25.56-6.84c4.252-5.544,6.482-12.375,6.32-19.36    V32.16C310.345,14.487,296.018,0.16,278.345,0.16z M110.585,75.32h-59.4v-31.6C51.337,28.474,63.659,16.152,78.905,16h4    l-0.04,0.28c15.246,0.152,27.568,12.474,27.72,27.72V75.32z M291.185,326.96c-0.788,1.037-1.878,1.806-3.12,2.2    c-1.339,0.296-2.736,0.17-4-0.36c-4.645-2.425-8.398-6.263-10.72-10.96l-56-89.04c-0.676-1.126-1.618-2.068-2.744-2.744    c-3.789-2.273-8.703-1.044-10.976,2.744l-56.28,89.04c-2.418,4.602-6.225,8.326-10.88,10.64c-1.264,0.53-2.661,0.656-4,0.36    c-1.242-0.394-2.332-1.163-3.12-2.2c-1.92-2.686-2.878-5.942-2.72-9.24V43.76c0.013-10.124-3.493-19.937-9.92-27.76h161.64    l-0.2,0.32c8.65,0.129,15.631,7.11,15.76,15.76v285.64C294.063,321.018,293.105,324.274,291.185,326.96z" />
	</g>
</g>
<g
   id="g172">
</g>
<g
   id="g174">
</g>
<g
   id="g176">
</g>
<g
   id="g178">
</g>
<g
   id="g180">
</g>
<g
   id="g182">
</g>
<g
   id="g184">
</g>
<g
   id="g186">
</g>
<g
   id="g188">
</g>
<g
   id="g190">
</g>
<g
   id="g192">
</g>
<g
   id="g194">
</g>
<g
   id="g196">
</g>
<g
   id="g198">
</g>
<g
   id="g200">
</g>
<g
   transform="matrix(0.22384347,0,0,0.22384347,157.81986,84.760791)"
   id="g483"><g
     id="g408">
	<g
   id="g406">
		<path
   d="m 506.24,371.7 -96,-80 c -4.768,-4 -11.424,-4.8 -17.024,-2.208 -5.632,2.656 -9.216,8.288 -9.216,14.496 v 48 h -26.784 c -22.208,0 -42.496,-11.264 -54.272,-30.08 L 199.328,156.148 C 175.808,118.484 135.232,95.988 90.784,95.988 H 0 v 64 h 90.784 c 22.208,0 42.496,11.264 54.272,30.08 l 103.616,165.76 c 23.552,37.664 64.128,60.16 108.544,60.16 H 384 v 48 c 0,6.208 3.584,11.84 9.216,14.496 2.144,0.992 4.48,1.504 6.784,1.504 3.68,0 7.328,-1.248 10.24,-3.712 l 96,-80 c 3.68,-3.04 5.76,-7.552 5.76,-12.288 0,-4.736 -2.08,-9.248 -5.76,-12.288 z"
   id="path404" />
	</g>
</g><g
     id="g414">
	<g
   id="g412">
		<path
   d="m 506.24,115.7 -96,-80 C 405.472,31.732 398.816,30.9 393.216,33.524 387.584,36.116 384,41.78 384,47.988 v 48 h -26.784 c -44.448,0 -85.024,22.496 -108.544,60.16 l -5.792,9.28 37.728,60.384 22.336,-35.744 c 11.776,-18.816 32.064,-30.08 54.272,-30.08 H 384 v 48 c 0,6.208 3.584,11.872 9.216,14.496 2.144,0.992 4.48,1.504 6.784,1.504 3.68,0 7.328,-1.28 10.24,-3.712 l 96,-80 c 3.68,-3.04 5.76,-7.552 5.76,-12.288 0,-4.736 -2.08,-9.248 -5.76,-12.288 z"
   id="path410" />
	</g>
</g><g
     id="g420">
	<g
   id="g418">
		<path
   d="m 167.392,286.164 -22.304,35.744 c -11.776,18.816 -32.096,30.08 -54.304,30.08 H 0 v 64 h 90.784 c 44.416,0 84.992,-22.496 108.544,-60.16 l 5.792,-9.28 z"
   id="path416" />
	</g>
</g><g
     id="g422">
</g><g
     id="g424">
</g><g
     id="g426">
</g><g
     id="g428">
</g><g
     id="g430">
</g><g
     id="g432">
</g><g
     id="g434">
</g><g
     id="g436">
</g><g
     id="g438">
</g><g
     id="g440">
</g><g
     id="g442">
</g><g
     id="g444">
</g><g
     id="g446">
</g><g
     id="g448">
</g><g
     id="g450">
</g></g></svg>
